<?xml version="1.0" encoding="UTF-8"?>
<svg width="73px" height="81px" viewBox="0 0 73 81" version="1.1" xmlns="http://www.w3.org/2000/svg" xmlns:xlink="http://www.w3.org/1999/xlink">
    <title>logo</title>
    <defs>
        <linearGradient x1="49.9640243%" y1="3.35465645%" x2="49.9640243%" y2="87.1800058%" id="linearGradient-1">
            <stop stop-color="#3B65F5" offset="0%"></stop>
            <stop stop-color="#7C5BE2" offset="100%"></stop>
        </linearGradient>
        <linearGradient x1="49.9748174%" y1="1.84891706%" x2="49.9748174%" y2="87.8763867%" id="linearGradient-2">
            <stop stop-color="#3B65F5" offset="0%"></stop>
            <stop stop-color="#7C5BE2" offset="100%"></stop>
        </linearGradient>
    </defs>
    <g id="Page-1" stroke="none" stroke-width="1" fill="none" fill-rule="evenodd">
        <g id="logo" transform="translate(0.000000, 0.000000)" fill-rule="nonzero">
            <path d="M19.446757,38.9844223 C16.0256987,39.0154991 12.6557238,38.1505059 9.6696005,36.4748566 C6.7305513,34.8378358 4.288479,32.4320576 2.6030419,29.5133213 C0.8468227,26.4633235 -0.0519611,22.9922667 0.0024683,19.4700393 C-0.0535649,15.9492067 0.8453591,12.479343 2.6030419,9.4317765 C4.2881591,6.5213612 6.7333241,4.1281237 9.6746016,2.5103943 C12.6633772,0.841417459 16.0315652,-0.0231170309 19.4517581,0.000828549061 C22.8823792,-0.0306298409 26.2621346,0.834219459 29.2589211,2.5103943 C32.1793103,4.1295616 34.601064,6.5218521 36.2604654,9.4267574 C38.0014206,12.4803077 38.8926938,15.9473081 38.8410346,19.4650202 C38.8926938,22.9827323 38.0014206,26.4497327 36.2604654,29.5032831 C34.5968107,32.4315578 32.1670106,34.8475539 29.2339156,36.489914 C26.2427236,38.160274 22.8696312,39.019993 19.446757,38.9844223 Z M19.446757,29.1720204 C21.8529095,29.2876982 24.1845352,28.3174414 25.8031589,26.5269381 C27.4365222,24.550193 28.2701193,22.0296379 28.1386741,19.4650202 C28.2825824,16.87426 27.4487025,14.3241772 25.8031589,12.3227962 C24.1740536,10.5504695 21.8466548,9.5929983 19.446757,9.7078287 C17.0347327,9.5817025 14.6920362,10.5401883 13.0553473,12.3227962 C11.4244339,14.330943 10.6003383,16.8783791 10.7448376,19.4650202 C10.6056723,22.0356362 11.4298722,24.5654906 13.0553473,26.5570529 C14.6887472,28.3444113 17.033775,29.3038509 19.446757,29.1720204 L19.446757,29.1720204 Z M57.8502273,38.9844223 C53.9930921,39.1444224 50.1889117,38.0397525 47.012837,35.8374269 C44.169023,33.7064191 42.4801166,30.364699 42.4468299,26.8029904 L53.6743062,26.8029904 C53.6776332,27.8930246 54.1004983,28.9396123 54.8545665,29.7241248 C56.3087464,30.8593154 58.3239194,30.9321231 59.8556696,29.9048136 C60.4750132,29.428279 60.8255248,28.6798212 60.795877,27.897161 C60.8096335,26.8047216 60.2022468,25.7997973 59.2305317,25.3072892 C57.6189017,24.4590482 55.9267747,23.7747132 54.1794176,23.2645027 C52.1243936,22.6078152 50.1188299,21.8043751 48.178094,20.8603387 C46.6007009,20.0554994 45.231098,18.894013 44.1772115,17.4674059 C42.995686,15.7555216 42.4102753,13.70008 42.5118442,11.6201178 C42.4497944,9.3845934 43.0901644,7.1861412 44.3422479,5.3361653 C45.6053443,3.5511106 47.3586309,2.1734203 49.3883609,1.37105143 C51.7131312,0.436377609 54.2010338,-0.0210123309 56.7049747,0.0259242091 C60.472364,-0.174413851 64.196043,0.913804889 67.2673043,3.11269 C69.9208161,5.2194881 71.4728231,8.4252285 71.4832342,11.8208831 L60.0407104,11.8208831 C60.0841455,10.8515785 59.7107755,9.9102188 59.0154843,9.2360304 C58.3036045,8.6438299 57.3988545,8.3363929 56.4749239,8.3727398 C55.7628208,8.3424828 55.0674973,8.5949277 54.539497,9.0754182 C54.0093353,9.6025976 53.7352881,10.3360246 53.7893316,11.0830707 C53.7857276,11.7948391 54.08832,12.4735527 54.6195147,12.9451685 C55.2314969,13.504461 55.9309888,13.9589045 56.6899714,14.2902957 C57.5101523,14.6667306 58.7304214,15.1435481 60.3407766,15.7207482 C62.3754352,16.393475 64.359311,17.2120272 66.2770859,18.1700843 C67.8498679,18.9945791 69.2239367,20.1543282 70.3029739,21.5680363 C71.4744099,23.1625321 72.0705227,25.1095376 71.9933467,27.0890808 C72.0266311,29.2396107 71.4395978,31.3539252 70.3029739,33.1772873 C69.1100354,35.0365703 67.415656,36.5177523 65.4168962,37.4485681 C63.0543889,38.5320164 60.4768713,39.0607073 57.8802339,38.9944606 L57.8502273,38.9844223 Z" id="Label_2" fill="#8CFAEB"></path>
            <path d="M15.6387058,80.9837827 C11.7213573,81.1492894 7.8566107,80.0443129 4.6327509,77.8370506 C1.7455139,75.7077639 0.0314198,72.3653484 0,68.8033701 L11.3915946,68.8033701 C11.3920388,69.8923994 11.8216098,70.9383787 12.5891074,71.7192414 C14.063433,72.8558832 16.1080946,72.9307083 17.6633144,71.9049337 C18.2917113,71.428439 18.6473465,70.6800438 18.6172653,69.8974492 C18.6300123,68.8054282 18.0141052,67.8011717 17.0290385,67.3077941 C15.3926032,66.4609822 13.676051,65.7751469 11.9040895,65.2601598 C9.8187326,64.6063453 7.7837704,63.8046172 5.8150412,62.8612157 C4.236116,62.0521115 2.8650082,60.8968411 1.8064177,59.483623 C0.5987152,57.7787511 -0.0043527,55.7263921 0.0913357,53.6468616 C0.0204403,51.4018747 0.6686666,49.1921484 1.9434213,47.3333226 C3.2310019,45.5520601 5.0103162,44.1755405 7.0683703,43.3685406 C9.4253611,42.4400583 11.9450624,41.9829093 14.4817866,42.0235259 C18.3050752,41.8226554 22.0838968,42.9127577 25.1985117,45.1150521 C27.8862117,47.2221094 29.4570147,50.4254188 29.4659197,53.8174977 L17.8612084,53.8174977 C17.8968243,52.8417192 17.502482,51.8986903 16.7804023,51.2328614 C16.0677784,50.651651 15.1666254,50.3450447 14.2432989,50.369643 C13.5233042,50.3398978 12.8201809,50.5903259 12.284655,51.0672439 C11.7494967,51.5964426 11.4703696,52.3277653 11.5184498,53.0747285 C11.5175396,53.7854804 11.826333,54.4621511 12.3658423,54.9316517 C12.9856473,55.4912169 13.6934633,55.9471978 14.4614898,56.2816851 C15.3004253,56.6597613 16.535149,57.134866 18.1656608,57.7069991 C20.2296866,58.382664 22.2424675,59.2027864 24.1887445,60.161149 C25.7869022,60.9841525 27.1830027,62.1439826 28.2785553,63.5588166 C29.4649281,65.154268 30.0695136,67.100335 29.9936372,69.0793992 C30.0250992,71.2294543 29.4296635,73.342958 28.2785553,75.1670962 C27.0673579,77.026188 25.3460809,78.5058239 23.3159809,79.4330009 C20.9206249,80.5214633 18.3042199,81.0503547 15.669151,80.978764 L15.6387058,80.9837827 Z" id="Path_87499" fill="url(#linearGradient-1)"></path>
            <path d="M59.7338202,74.8021659 L46.2107781,74.8021659 L44.1458071,81 L33,81 L46.9259632,43 L59.154621,43 L73,81 L61.7836817,81 L59.7338202,74.8021659 Z M57.0795769,66.7173798 L52.9697809,54.4270998 L48.91035,66.7173798 L57.0795769,66.7173798 Z" id="Path_87500" fill="url(#linearGradient-2)"></path>
        </g>
    </g>
</svg>